<svg xmlns="http://www.w3.org/2000/svg" fill="#01ada6" viewBox="0 0 330 330"><title>Capa 1</title><g id="Layer_2" data-name="Layer 2"><g id="Capa_1" data-name="Capa 1"><path d="M165,0C74,0,0,74,0,165S74,330,165,330s165-74,165-165S256,0,165,0Zm0,300C90.56,300,30,239.44,30,165S90.56,30,165,30,300,90.56,300,165,239.44,300,165,300Z"/><path d="M248.54,193.23a102.46,102.46,0,0,1-32.19-5.13c-5-1.72-11.23-.14-14.31,3l-20.29,15.32c-23.54-12.57-38-27.06-50.43-50.42l14.87-19.77a14.57,14.57,0,0,0,3.59-14.78,102.68,102.68,0,0,1-5.15-32.24,14.49,14.49,0,0,0-14.48-14.48H97A14.5,14.5,0,0,0,82.52,89.23c0,91.55,74.47,166,166,166A14.5,14.5,0,0,0,263,240.77V207.71A14.5,14.5,0,0,0,248.54,193.23Z"/></g></g></svg>